<?xml version="1.0" standalone="no"?>
<!DOCTYPE svg PUBLIC "-//W3C//DTD SVG 20010904//EN"
 "http://www.w3.org/TR/2001/REC-SVG-20010904/DTD/svg10.dtd">
<svg version="1.0" xmlns="http://www.w3.org/2000/svg"
 width="500.000000pt" height="500.000000pt" viewBox="0 0 500.000000 500.000000"
 preserveAspectRatio="xMidYMid meet">
<metadata>
Created by potrace 1.16, written by Peter Selinger 2001-2019
</metadata>
<g transform="translate(0.000000,500.000000) scale(0.100000,-0.100000)"
fill="#000000" stroke="none">
<path d="M1539 3387 c-14 -8 -67 -44 -119 -82 -52 -37 -104 -72 -116 -77 -16
-8 -19 -14 -12 -22 8 -8 19 -3 43 21 63 63 79 33 41 -75 -14 -43 -26 -90 -25
-107 1 -20 3 -23 6 -10 2 11 6 29 8 40 2 11 24 50 48 86 26 39 48 89 56 122
12 54 31 86 31 53 0 -17 9 -20 34 -10 8 3 12 12 9 20 -3 8 -1 14 3 14 11 0 34
-48 34 -72 0 -27 -51 -148 -83 -196 -35 -53 -57 -104 -57 -135 0 -21 4 -19 51
24 28 26 66 55 86 65 34 19 35 19 49 -1 21 -27 11 -96 -20 -149 -13 -23 -52
-66 -86 -95 -59 -51 -100 -103 -100 -126 0 -5 8 4 18 20 39 64 72 69 73 12 0
-27 3 -23 19 27 11 34 48 102 86 157 72 106 90 166 64 215 -17 32 -27 30 -67
-8 -30 -29 -33 -30 -33 -11 0 11 7 40 15 64 36 101 37 124 8 189 -14 33 -29
60 -32 60 -3 0 -18 -6 -32 -13z"/>
<path d="M1160 3191 c-52 -16 -107 -51 -168 -105 -75 -67 -130 -96 -233 -124
-98 -27 -149 -56 -142 -82 8 -31 71 -98 118 -126 l44 -25 -39 -72 c-42 -78
-122 -268 -116 -275 2 -2 7 5 10 16 10 29 92 102 115 102 26 0 58 -42 72 -94
11 -40 7 -160 -6 -201 -3 -11 1 -7 10 8 9 16 23 58 30 94 17 80 10 125 -39
243 -21 50 -36 102 -36 126 l0 41 51 6 c28 4 76 19 108 35 l57 28 28 -58 c19
-41 53 -84 110 -141 78 -77 90 -95 110 -172 3 -11 3 -2 1 20 -2 22 -22 74 -43
115 -21 41 -42 88 -46 103 -10 44 18 124 69 197 54 77 65 111 65 210 l0 75
-21 -32 c-11 -18 -30 -35 -42 -39 -20 -7 -20 -8 8 -13 25 -5 31 -11 33 -39 4
-36 -29 -101 -71 -140 l-25 -23 -22 28 c-19 24 -21 35 -15 78 9 72 38 131 72
149 29 14 62 46 49 46 -4 0 -24 -9 -45 -20 -34 -17 -43 -29 -67 -92 -20 -53
-30 -98 -34 -164 -7 -123 -31 -154 -71 -91 -16 26 -19 45 -17 99 5 89 -13 72
-21 -19 -6 -66 -7 -68 -33 -66 -14 1 -50 18 -78 37 -29 20 -61 36 -72 36 -18
0 -16 -4 11 -29 35 -33 39 -60 13 -84 -26 -24 -60 -21 -103 8 -50 35 -76 85
-64 122 13 36 73 66 146 71 51 4 59 2 92 -27 l36 -32 -6 34 c-8 49 10 95 57
145 46 51 68 52 91 4 l17 -32 6 34 c8 39 38 66 75 66 13 0 21 3 18 7 -4 3 0
15 10 25 15 17 15 18 -8 17 -13 0 -35 -4 -49 -8z"/>
<path d="M2073 2736 c-32 -23 -46 -78 -46 -180 1 -165 28 -216 113 -215 l50 2
0 98 0 99 -37 -1 c-33 0 -35 -1 -15 -9 20 -8 22 -16 22 -79 0 -77 -6 -101 -25
-101 -24 0 -37 29 -46 102 -13 100 -2 243 21 271 18 21 18 22 39 3 13 -12 21
-31 21 -53 0 -18 5 -33 10 -33 6 0 10 22 10 48 0 38 -4 48 -17 49 -10 1 -31 5
-48 8 -19 4 -38 1 -52 -9z"/>
<path d="M2417 2720 c-34 -40 -51 -126 -43 -216 9 -118 38 -164 101 -164 68 0
95 57 95 205 0 109 -12 158 -47 185 -38 29 -76 26 -106 -10z m94 -34 c7 -24
10 -94 7 -173 -3 -106 -7 -136 -20 -149 -9 -9 -24 -14 -32 -11 -30 12 -37 58
-34 210 3 131 5 150 21 162 28 20 45 8 58 -39z"/>
<path d="M3298 2730 c-33 -26 -53 -97 -52 -190 2 -135 33 -200 97 -200 72 0
100 53 101 190 1 107 -8 152 -40 190 -30 36 -69 40 -106 10z m81 -32 c14 -41
14 -276 0 -317 -12 -35 -38 -41 -60 -14 -15 18 -26 247 -15 308 13 67 55 80
75 23z"/>
<path d="M1630 2546 c0 -146 -3 -196 -12 -199 -7 -3 29 -6 80 -6 l92 -1 0 56
c0 34 -4 53 -10 49 -5 -3 -10 -17 -10 -31 0 -31 -35 -66 -63 -62 -22 3 -22 5
-22 196 l0 192 -27 0 -28 0 0 -194z"/>
<path d="M1828 2733 c9 -3 12 -52 12 -193 0 -141 -3 -190 -12 -193 -7 -3 29
-6 80 -6 l92 -1 0 65 c0 37 -4 65 -10 65 -5 0 -10 -20 -10 -44 0 -49 -24 -76
-67 -76 -22 0 -23 3 -23 90 0 65 3 90 13 90 20 0 35 -14 46 -40 8 -20 10 -11
10 45 -1 39 -3 63 -6 55 -9 -24 -35 -50 -50 -50 -10 0 -13 22 -13 95 l0 95 29
0 c36 0 61 -23 61 -56 0 -13 5 -24 10 -24 6 0 10 20 10 45 l0 45 -92 -1 c-51
0 -87 -3 -80 -6z"/>
<path d="M2258 2540 l-3 -200 35 0 35 0 -3 200 -3 200 -29 0 -29 0 -3 -200z"/>
<path d="M2638 2553 c3 -169 1 -189 -14 -200 -16 -11 -13 -13 22 -13 31 1 36
3 22 11 -16 9 -18 27 -18 135 0 69 4 123 8 120 5 -3 35 -64 67 -135 51 -114
61 -131 82 -131 l23 0 0 194 c0 146 3 196 13 199 6 3 -6 5 -28 5 -22 0 -32 -2
-22 -5 15 -4 17 -19 17 -139 0 -74 -2 -134 -5 -134 -3 0 -35 63 -72 140 -93
196 -99 193 -95 -47z"/>
<path d="M2981 2733 c12 -3 27 -53 59 -199 27 -119 48 -193 54 -191 6 2 31 90
55 195 33 138 49 192 60 195 9 3 2 5 -16 6 -25 1 -30 -2 -27 -16 3 -10 -9 -76
-25 -148 -22 -100 -30 -124 -35 -104 -40 148 -61 259 -52 263 6 2 -11 4 -39 4
-27 0 -43 -2 -34 -5z"/>
<path d="M3498 2733 c9 -3 12 -52 12 -193 0 -141 -3 -190 -12 -193 -7 -3 9 -6
37 -6 38 -1 46 2 37 11 -7 7 -12 44 -12 95 0 81 1 83 24 83 35 0 43 -17 48
-98 4 -78 13 -92 58 -92 19 0 21 3 12 12 -7 7 -12 38 -12 69 0 47 -5 63 -24
86 l-24 27 20 27 c11 15 23 47 25 72 5 41 2 49 -25 77 -29 28 -35 30 -104 29
-40 0 -67 -3 -60 -6z"/>
<path d="M3851 2703 c-6 -21 -27 -105 -47 -188 -21 -86 -43 -155 -52 -162 -13
-11 -11 -13 17 -13 20 0 30 4 26 11 -4 6 -4 26 0 45 l6 35 52 -3 c49 -3 52 -5
58 -35 3 -18 2 -36 -4 -42 -8 -8 5 -11 43 -11 45 0 51 2 38 13 -10 7 -28 68
-48 162 -45 210 -49 225 -65 225 -8 0 -19 -16 -24 -37z"/>
<path d="M4023 2728 c9 -7 32 -55 51 -106 l35 -92 -36 -90 c-20 -49 -44 -91
-52 -93 -9 -3 -2 -5 16 -6 23 -1 31 3 27 13 -7 17 46 150 56 139 15 -17 52
-132 45 -142 -4 -7 12 -11 47 -10 29 1 45 3 36 6 -15 4 -98 195 -98 226 0 7
12 44 27 84 20 52 33 73 48 76 12 3 6 5 -13 6 -18 0 -31 -3 -27 -8 6 -10 -42
-127 -49 -120 -11 11 -45 113 -40 121 3 4 -16 8 -42 8 -40 0 -45 -2 -31 -12z"/>
</g>
</svg>
