<?xml version="1.0" standalone="no"?>
<!DOCTYPE svg PUBLIC "-//W3C//DTD SVG 20010904//EN"
 "http://www.w3.org/TR/2001/REC-SVG-20010904/DTD/svg10.dtd">
<svg version="1.0" xmlns="http://www.w3.org/2000/svg"
 width="500.000000pt" height="500.000000pt" viewBox="0 0 500.000000 500.000000"
 preserveAspectRatio="xMidYMid meet">

<g transform="translate(0.000000,500.000000) scale(0.100000,-0.100000)"
fill="#000000" stroke="none">
<path d="M1769 3960 c-15 -4 -56 -30 -91 -56 -257 -194 -318 -229 -438 -250
-164 -29 -234 -66 -369 -193 -94 -90 -209 -150 -349 -185 -128 -32 -242 -89
-242 -121 0 -52 114 -178 211 -234 l47 -26 -64 -115 c-35 -63 -76 -146 -90
-185 -15 -38 -42 -105 -60 -147 -37 -87 -69 -187 -61 -195 3 -3 11 15 17 38
32 118 141 239 215 239 34 0 82 -63 105 -139 19 -61 22 -88 17 -165 -3 -50
-12 -116 -21 -146 -28 -98 -27 -106 4 -40 62 130 90 279 71 371 -7 30 -37 111
-67 182 -39 91 -57 146 -61 191 -8 91 1 102 86 108 57 4 88 14 158 49 49 23
92 43 97 43 5 1 13 -10 16 -24 24 -87 123 -226 214 -300 95 -77 139 -142 162
-243 l14 -62 -4 60 c-4 61 -23 111 -103 260 -70 131 -56 231 53 392 108 159
107 156 115 333 4 85 10 166 13 180 4 14 0 8 -9 -14 -25 -65 -55 -105 -95
-129 l-39 -23 36 0 c41 0 73 -31 73 -71 0 -60 -123 -243 -163 -243 -22 0 -55
45 -63 85 -7 39 20 184 43 229 19 38 63 86 78 86 6 0 30 18 54 40 23 22 41 40
38 40 -21 0 -140 -65 -151 -82 -14 -21 -66 -155 -87 -223 -6 -16 -13 -92 -17
-168 -7 -120 -11 -140 -29 -158 -30 -30 -57 -17 -83 39 -36 76 -38 188 -3 277
4 12 3 16 -5 11 -23 -14 -52 -118 -55 -194 -2 -74 -3 -77 -27 -80 -33 -4 -80
18 -158 73 -47 33 -73 45 -99 45 l-37 0 42 -36 c49 -41 73 -103 52 -129 -8 -9
-27 -23 -43 -32 -25 -13 -36 -13 -76 -2 -61 17 -166 119 -176 171 -16 87 72
154 231 174 70 9 117 -9 178 -65 30 -28 46 -38 41 -26 -19 46 -18 131 2 176
24 53 104 144 145 165 27 14 31 14 49 -2 11 -10 25 -38 33 -63 l13 -45 12 49
c17 68 66 115 119 115 34 0 39 3 35 18 -6 25 28 53 84 68 40 10 50 10 59 -2 9
-11 17 -6 43 26 36 45 82 73 105 64 26 -10 19 -61 -24 -170 -33 -84 -40 -114
-39 -166 l1 -63 9 49 c11 70 25 100 95 202 52 76 65 105 79 170 10 44 23 87
30 97 12 17 13 17 18 -3 10 -38 72 -19 72 22 0 29 30 31 30 3 1 -11 8 -32 18
-45 9 -13 17 -33 17 -43 0 -42 -101 -275 -146 -335 -53 -72 -84 -153 -84 -219
l1 -48 13 31 c13 30 185 175 234 197 19 9 27 7 45 -12 30 -30 29 -123 -3 -206
-23 -60 -42 -81 -212 -240 -38 -35 -73 -80 -86 -107 -27 -60 -29 -88 -2 -33
27 56 76 107 98 103 15 -3 17 -18 15 -143 -1 -133 -1 -136 8 -60 12 101 42
212 75 277 15 29 62 102 105 163 43 61 86 129 95 151 22 52 22 156 0 189 -29
43 -44 42 -97 -11 -77 -76 -81 -49 -19 131 12 33 24 88 27 123 5 54 3 67 -15
92 -12 15 -24 41 -28 56 -7 33 -31 74 -42 73 -4 0 -19 -4 -33 -9z"/>
<path d="M1540 3070 c-6 -11 -8 -20 -6 -20 3 0 10 9 16 20 6 11 8 20 6 20 -3
0 -10 -9 -16 -20z"/>
<path d="M1488 2998 c-19 -24 -42 -55 -51 -70 -10 -16 -25 -40 -34 -55 l-17
-28 -7 25 c-12 42 -10 -120 2 -185 11 -62 48 -169 55 -162 3 2 -2 30 -11 63
-32 124 -7 284 62 385 38 56 45 69 40 69 -3 0 -20 -19 -39 -42z"/>
<path d="M2392 2638 c-7 -7 -12 -21 -12 -33 0 -44 60 -63 80 -26 14 27 13 37
-6 55 -18 19 -45 21 -62 4z"/>
<path d="M1490 2440 l0 -200 116 0 115 0 -3 38 -3 37 -67 3 -68 3 0 159 0 160
-45 0 -45 0 0 -200z"/>
<path d="M2652 2601 c-27 -48 -27 -51 1 -51 21 0 50 24 86 73 12 15 10 17 -26
17 -35 0 -42 -4 -61 -39z"/>
<path d="M3240 2632 c0 -5 31 -94 68 -198 l69 -189 50 -3 50 -3 69 192 c38
106 71 196 72 201 2 4 -19 8 -46 8 l-50 0 -48 -142 -47 -143 -47 140 -47 140
-46 3 c-26 2 -47 -1 -47 -6z"/>
<path d="M1823 2510 c-48 -11 -83 -37 -99 -75 -18 -45 -18 -79 3 -122 23 -49
66 -73 131 -73 64 0 106 20 127 60 l16 30 -41 0 c-24 0 -48 -7 -56 -15 -21
-21 -67 -19 -87 3 -33 36 -22 42 83 42 l100 0 0 30 c0 83 -85 141 -177 120z
m75 -72 c22 -22 13 -28 -38 -28 -27 0 -50 4 -50 8 0 16 25 32 50 32 14 0 31
-5 38 -12z"/>
<path d="M2071 2484 c-63 -52 -65 -152 -6 -211 28 -28 40 -33 82 -33 28 0 58
7 71 16 22 15 22 14 22 -21 0 -70 -75 -110 -121 -64 -18 18 -24 19 -55 9 -19
-6 -34 -17 -34 -24 0 -14 35 -48 67 -65 33 -17 114 -13 152 7 62 33 71 65 71
249 l0 163 -39 0 c-22 0 -41 -5 -43 -11 -3 -9 -9 -9 -25 0 -40 21 -108 14
-142 -15z m146 -66 c13 -12 23 -31 23 -42 0 -27 -39 -66 -67 -66 -30 0 -63 34
-63 65 0 31 33 65 62 65 12 0 32 -10 45 -22z"/>
<path d="M2380 2375 l0 -135 40 0 40 0 0 135 0 135 -40 0 -40 0 0 -135z"/>
<path d="M2565 2490 c-36 -24 -65 -74 -65 -113 0 -44 28 -94 65 -117 40 -25
123 -27 166 -5 88 46 92 183 6 235 -44 27 -131 27 -172 0z m130 -70 c24 -27
22 -70 -5 -92 -44 -36 -100 -10 -100 47 0 57 67 87 105 45z"/>
<path d="M2840 2375 l0 -135 40 0 40 0 0 84 c0 89 12 116 49 116 33 0 41 -22
41 -112 l0 -88 45 0 45 0 0 90 c0 98 -15 151 -48 169 -30 16 -84 13 -110 -5
-20 -14 -22 -14 -22 0 0 12 -10 16 -40 16 l-40 0 0 -135z"/>
<path d="M3672 2490 c-35 -21 -62 -72 -62 -115 0 -43 27 -94 62 -115 44 -26
131 -27 174 -1 34 21 64 75 64 116 0 41 -30 95 -64 116 -43 26 -130 25 -174
-1z m126 -66 c46 -32 18 -114 -39 -114 -28 0 -61 34 -61 63 0 56 53 84 100 51z"/>
<path d="M3940 2375 l0 -135 45 0 45 0 0 80 c0 91 17 120 70 120 28 0 30 3 30
35 0 33 -2 35 -32 35 -17 0 -40 -7 -50 -17 -17 -15 -18 -15 -18 0 0 13 -10 17
-45 17 l-45 0 0 -135z"/>
<path d="M4184 2491 c-34 -21 -64 -75 -64 -116 0 -41 30 -95 64 -116 40 -25
106 -25 137 0 24 19 25 19 48 0 18 -15 39 -19 96 -19 73 0 74 0 105 38 l31 37
32 -38 c30 -36 35 -38 80 -35 l48 3 -55 64 -54 65 54 65 55 66 -48 3 c-45 3
-50 1 -81 -35 l-33 -38 -30 38 c-28 34 -35 37 -81 37 l-51 0 24 -29 c13 -16
38 -47 56 -69 l32 -39 -49 -54 c-40 -45 -49 -50 -50 -33 0 12 -7 24 -15 28
-12 4 -15 25 -15 101 l0 95 -45 0 c-25 0 -45 -5 -45 -10 0 -7 -6 -7 -19 0 -31
16 -93 12 -127 -9z m135 -77 c12 -15 21 -33 21 -41 0 -21 -46 -63 -70 -63 -53
0 -81 84 -38 114 33 23 64 19 87 -10z"/>
</g>
</svg>
