<svg version="1.1" id="Layer_1" xmlns="http://www.w3.org/2000/svg" xmlns:xlink="http://www.w3.org/1999/xlink" x="0px" y="0px"
	 width="100%" viewBox="0 0 500 500" enable-background="new 0 0 500 500" xml:space="preserve">
<path fill="#FFFFFF" opacity="1.000000" stroke="none" 
	d="
M274.000000,501.000000 
	C182.666687,501.000000 91.833374,501.000000 1.000049,501.000000 
	C1.000032,334.333405 1.000032,167.666794 1.000016,1.000138 
	C167.666565,1.000092 334.333130,1.000092 500.999756,1.000046 
	C500.999847,167.666519 500.999847,334.333038 500.999939,500.999786 
	C425.500000,501.000000 350.000000,501.000000 274.000000,501.000000 
M99.346046,193.044388 
	C98.560150,193.919006 97.774254,194.793640 96.332733,195.972137 
	C89.073570,201.650589 80.159470,203.172302 71.771530,206.191238 
	C60.495625,210.249588 59.710693,211.117233 68.128670,220.619156 
	C68.222122,220.724609 68.670776,220.515381 68.950989,220.453613 
	C68.202377,210.567291 69.261719,208.494781 76.614281,206.302872 
	C83.006714,204.397202 89.284767,203.988342 94.033508,208.919052 
	C95.546806,204.278214 96.906464,200.108536 98.913261,195.848801 
	C99.280205,194.903687 99.647148,193.958572 100.642387,192.932831 
	C101.071220,192.315689 101.500046,191.698547 101.928879,191.081406 
	C101.598946,190.922104 101.269012,190.762802 100.939087,190.603500 
	C100.621239,191.397400 100.303391,192.191299 99.346046,193.044388 
M116.678246,195.915009 
	C118.769051,193.978882 120.873703,192.057388 122.943153,190.098709 
	C123.670540,189.410248 124.311592,188.630600 124.992065,187.892578 
	C124.125069,187.373398 123.258080,186.854202 122.043404,185.610443 
	C122.496689,184.143265 122.949982,182.676102 123.524834,180.815475 
	C116.318924,181.187775 110.153763,183.713898 105.691666,187.619171 
	C107.951874,190.111420 109.909554,192.270081 111.740631,194.289139 
	C114.152290,186.943680 115.261711,186.088593 122.076332,187.043900 
	C118.862801,189.219864 116.467949,191.953247 115.708916,196.104263 
	C115.809502,196.074051 115.910088,196.043839 116.678246,195.915009 
M159.751434,215.744293 
	C155.724030,218.735718 151.696625,221.727142 147.382660,224.931427 
	C149.294556,225.986481 150.947968,226.355255 151.498505,227.340378 
	C152.185532,228.569687 151.964157,230.306671 152.109680,231.599625 
	C154.768448,226.069534 157.424789,220.544525 159.964279,214.936722 
	C159.964279,214.936722 160.181488,214.928253 160.181488,214.928253 
	C160.181488,214.928253 160.024933,215.062225 159.751434,215.744293 
M134.137741,246.939240 
	C134.137741,246.939240 134.084961,247.184143 134.084961,247.184143 
	C134.084961,247.184143 134.022491,246.997070 133.346252,246.263199 
	C134.384232,238.552658 135.422211,230.842102 136.188354,225.150833 
	C129.156860,230.084030 128.726639,238.110703 134.137741,246.939240 
M79.723396,229.479126 
	C83.998367,228.520523 88.334900,227.770370 92.527290,226.532166 
	C95.464401,225.664719 98.204742,224.131042 101.206673,223.619095 
	C104.871788,235.510437 114.501106,242.493896 123.492493,250.782791 
	C121.809479,247.346985 120.543243,244.363052 118.940063,241.572708 
	C115.658630,235.861389 115.943291,230.055145 118.576340,224.373581 
	C120.097069,221.092163 122.630966,218.288895 124.244911,215.039948 
	C126.341591,210.819244 127.976997,206.369370 130.041000,201.114502 
	C130.041000,196.592819 130.041000,192.071152 130.041000,187.834946 
	C127.673607,190.407501 125.254089,193.036682 122.660683,195.854858 
	C127.462265,195.402084 128.480850,198.154999 127.904465,202.671829 
	C125.864212,206.036209 123.983208,209.514664 121.698853,212.704208 
	C120.880402,213.847000 118.671432,215.222168 117.834175,214.846878 
	C116.438606,214.221359 115.108620,212.407440 114.705612,210.847321 
	C114.058609,208.342575 114.190193,205.636719 114.309082,202.537064 
	C114.774879,202.046402 115.240669,201.555756 115.706467,201.065094 
	C115.413429,200.834091 115.120384,200.603088 114.827347,200.372086 
	C114.220367,201.253876 113.613396,202.135666 112.927177,203.833588 
	C112.549377,206.106522 112.018494,208.366821 111.829559,210.655350 
	C111.544167,214.112289 111.797821,217.639908 111.221573,221.035538 
	C110.935387,222.721939 109.311302,224.181305 108.292465,225.743362 
	C107.058052,224.583282 105.379997,223.636429 104.695427,222.212082 
	C103.721031,220.184738 103.278305,217.833008 102.977974,215.570801 
	C102.703308,213.501907 102.919716,211.367813 102.919716,209.262466 
	C102.364830,209.255844 101.809944,209.249207 101.255058,209.242584 
	C101.049057,213.233780 100.843063,217.224960 99.760384,221.464874 
	C96.236191,219.856247 92.721046,218.227402 89.184540,216.646301 
	C86.924637,215.635956 84.633163,214.696213 82.451630,213.765671 
	C84.103516,217.614273 86.938477,221.074356 86.206284,223.421783 
	C85.511734,225.648514 81.081116,226.709915 77.853355,228.532242 
	C77.789650,228.118118 77.936455,229.072418 77.593452,230.494019 
	C72.744827,240.486023 67.896202,250.478027 63.047573,260.470032 
	C63.465527,260.680695 63.883476,260.891357 64.301430,261.102020 
	C65.385864,259.699951 66.382904,258.217560 67.577919,256.917114 
	C68.922279,255.454117 70.319885,253.983444 71.915581,252.819382 
	C75.680222,250.073013 78.141212,250.573730 80.533615,254.579498 
	C84.212234,260.738922 84.617439,267.435608 83.470383,274.343536 
	C83.193031,276.013794 82.993172,277.696899 82.757683,279.374115 
	C88.358986,269.383911 89.286896,259.285522 83.986214,249.044022 
	C80.909241,243.098984 78.484818,236.951935 79.723396,229.479126 
M400.872498,266.809143 
	C403.174744,266.809143 405.476990,266.809143 406.574341,266.809143 
	C408.486115,261.595917 410.265289,256.744263 412.558105,250.491852 
	C414.744934,256.749420 416.445923,261.616821 418.227386,266.714447 
	C420.590210,266.714447 423.589752,266.714447 425.845612,266.714447 
	C419.245911,254.100433 411.416626,241.865738 423.054138,227.204285 
	C422.228973,227.043365 421.403809,226.882446 420.578644,226.721512 
	C418.718781,230.889526 416.858917,235.057541 414.414734,240.534973 
	C412.809082,234.916611 411.642517,230.834793 410.399170,226.484161 
	C408.214783,226.484161 405.321625,226.484161 402.428497,226.484161 
	C402.154297,226.842255 401.880096,227.200363 401.605927,227.558456 
	C402.520294,228.093964 403.961273,228.420532 404.269226,229.196655 
	C408.222473,239.160507 414.534943,248.980194 406.834473,259.938293 
	C406.369873,260.599365 406.129425,261.443207 405.891907,262.234222 
	C405.000336,265.203461 403.041077,266.403229 399.421265,265.448517 
	C398.939148,264.053650 398.318451,262.689880 397.997009,261.258911 
	C395.630829,250.724426 393.371979,240.165497 390.935364,229.647614 
	C390.650269,228.417114 389.488586,227.389679 388.733307,226.268112 
	C387.806854,227.393570 386.368866,228.385437 386.034576,229.665543 
	C383.265015,240.270798 380.757843,250.944366 378.017334,261.557526 
	C377.538361,263.412598 376.337555,265.081268 375.452820,266.871094 
	C377.127441,266.871094 379.080841,266.871094 379.795807,266.871094 
	C381.932434,257.206299 383.983337,247.929489 386.034210,238.652679 
	C388.257568,248.093979 391.641144,257.163361 391.503784,266.843475 
	C394.028534,266.843475 397.013611,266.843475 400.872498,266.809143 
M214.209442,226.021317 
	C209.729660,225.187500 206.497238,227.095947 205.193130,231.204910 
	C201.877853,241.650665 202.091217,252.173157 205.862488,262.491547 
	C207.105957,265.893768 209.737289,267.886475 213.589676,267.554138 
	C215.833313,267.360565 218.058655,266.955200 220.422440,266.627045 
	C220.422440,259.973450 220.422440,253.289948 220.422440,246.255920 
	C217.664825,246.376328 215.346588,246.477539 213.963455,246.537933 
	C214.919495,249.192017 215.945068,251.082794 216.231873,253.079666 
	C216.582962,255.524185 216.575470,258.094879 216.225082,260.539642 
	C215.984741,262.216431 214.895523,263.771545 214.185745,265.381042 
	C213.084198,263.911102 211.098068,262.483368 211.025574,260.964294 
	C210.575485,251.535019 210.328461,242.078629 210.602997,232.648392 
	C210.651733,230.974869 213.463425,229.381775 215.641037,228.182388 
	C216.825272,231.405273 218.009491,234.628159 219.193726,237.851044 
	C219.496109,237.850754 219.798508,237.850449 220.100891,237.850159 
	C220.100891,234.046204 220.100891,230.242264 220.100891,227.009293 
	C218.345001,226.783844 216.666840,226.568359 214.209442,226.021317 
M136.052856,192.586136 
	C136.052856,193.881409 136.052856,195.176682 136.052856,196.471954 
	C136.227264,196.506897 136.401688,196.541840 136.576096,196.576767 
	C137.003281,195.037598 137.430450,193.498428 138.204391,191.371399 
	C142.366898,183.793533 146.529388,176.215683 150.697296,168.627975 
	C153.293137,170.542099 155.237305,168.867462 155.820511,165.509216 
	C161.652466,171.078522 157.963013,176.595749 155.472961,182.011322 
	C153.549820,186.193924 150.950119,190.063705 148.994385,194.233536 
	C146.947525,198.597672 145.310501,203.154022 143.494339,207.626373 
	C146.641525,206.226791 148.574799,204.302734 150.642593,202.536163 
	C152.914658,200.595108 155.197525,198.624115 157.697006,197.008606 
	C159.090302,196.108063 161.677109,194.989960 162.411179,195.586884 
	C163.718002,196.649506 164.647980,198.951859 164.613876,200.714005 
	C164.555679,203.721512 163.630569,206.712234 163.015945,209.996841 
	C171.114334,203.179276 172.560455,192.881042 166.201828,187.624405 
	C164.049164,189.522247 161.865540,191.447388 158.552734,194.368057 
	C159.315430,190.962296 159.512543,188.866791 160.254013,186.985840 
	C163.146713,179.647659 165.235977,172.586380 160.742020,164.840622 
	C158.754990,161.415771 157.222992,160.323563 154.010010,162.413605 
	C152.529984,163.376373 151.317947,164.751144 149.348099,165.988846 
	C149.053665,166.282913 148.759247,166.576996 147.837189,167.036423 
	C144.226944,169.671204 140.616699,172.305969 137.018417,175.360535 
	C136.901520,175.458923 136.792603,175.569565 136.665451,175.652176 
	C136.541458,175.732758 136.398819,175.784637 136.264374,175.849121 
	C136.503448,175.525787 136.742508,175.202454 137.783966,175.035080 
	C142.242065,175.052979 141.347946,177.955414 140.536270,180.485504 
	C139.291046,184.367035 137.772812,188.160980 136.052856,192.586136 
M364.049866,261.958649 
	C365.584656,267.415192 367.370636,268.388031 372.208801,266.566162 
	C367.413757,261.038910 373.936005,251.749252 365.426971,247.761124 
	C370.367004,242.523941 371.929108,236.732620 368.833313,231.211472 
	C364.634796,223.723770 356.924988,226.932587 351.813507,226.303726 
	C352.007660,240.105286 351.958130,253.427490 351.864166,266.724121 
	C353.248291,266.724121 355.999573,266.724121 358.271301,266.724121 
	C358.271301,260.384979 358.271301,254.339615 358.271301,248.238159 
	C362.110535,247.741486 363.598083,249.929306 363.908020,253.095673 
	C364.166718,255.738434 364.002167,258.422638 364.049866,261.958649 
M266.885193,252.530701 
	C266.885193,249.230499 266.885193,245.930298 266.885193,242.630096 
	C271.048126,249.519897 274.323456,256.404297 277.295898,263.417084 
	C278.612762,266.523834 280.256500,268.010498 283.969299,266.418518 
	C283.969299,259.718140 283.909821,252.910812 283.986481,246.105026 
	C284.059265,239.645111 284.274597,233.186783 284.424225,226.856049 
	C283.390991,226.856049 281.391937,226.856049 280.023590,226.856049 
	C282.575226,235.315201 280.789124,243.538818 280.615784,251.785431 
	C276.400177,244.501663 272.573853,237.178391 269.155975,229.669235 
	C267.593018,226.235321 265.593048,225.450211 262.174957,226.707031 
	C264.998230,230.177658 264.971558,262.940796 262.187836,266.848633 
	C264.441986,266.848633 266.555023,266.848633 267.322479,266.848633 
	C267.173523,262.304840 267.029327,257.905640 266.885193,252.530701 
M239.929489,232.597473 
	C236.994156,241.883682 237.072769,251.194717 239.844788,260.482788 
	C241.084167,264.635529 243.628647,267.600159 248.289276,267.624390 
	C253.159668,267.649719 255.839417,264.660919 257.055634,260.248138 
	C259.485748,251.430908 259.626648,242.563217 257.164978,233.730835 
	C256.047974,229.723145 254.156143,226.357315 249.365814,225.832962 
	C244.588547,225.310043 241.976608,227.944641 239.929489,232.597473 
M345.280853,237.376297 
	C345.100739,236.394852 345.030914,235.377106 344.721741,234.438156 
	C343.268921,230.026321 341.504181,225.900589 335.835266,225.792892 
	C331.194122,225.704742 328.233978,228.302460 326.548981,234.552429 
	C324.338104,242.752914 324.442596,251.021057 326.668518,259.217896 
	C327.929626,263.861694 330.265656,267.569305 335.757629,267.633606 
	C340.334961,267.687225 343.961395,264.613495 344.728699,258.565796 
	C345.579437,251.860504 345.284912,245.009888 345.280853,237.376297 
M195.143646,251.138657 
	C195.429794,252.111908 195.715942,253.085159 196.002090,254.058395 
	C196.180038,254.004227 196.358002,253.950058 196.535950,253.895874 
	C196.535950,249.475342 196.535950,245.054810 196.535950,240.805389 
	C195.077545,242.758804 193.630035,244.697617 192.182541,246.636444 
	C191.754913,246.381027 191.327286,246.125610 190.899658,245.870209 
	C190.899658,239.990082 190.899658,234.109955 190.899658,228.293427 
	C197.942093,226.955566 198.826584,231.943359 200.538971,236.510544 
	C200.538971,233.241898 200.538971,229.973251 200.538971,226.293900 
	C197.484146,226.293900 194.682190,226.293900 191.880249,226.293900 
	C189.027466,226.293900 186.174698,226.293900 182.826935,226.293900 
	C185.416977,230.553558 185.403839,262.925171 183.346207,266.751465 
	C189.100861,266.751465 194.841217,266.751465 200.324249,266.751465 
	C200.324249,262.269440 200.324249,258.086731 200.324249,253.904022 
	C199.067978,256.649414 199.566437,259.858582 198.268692,261.956757 
	C197.053131,263.921967 193.935318,264.710602 190.826828,266.491211 
	C190.826828,259.428467 190.826828,254.163208 190.826828,247.841980 
	C192.609497,248.952805 193.747101,249.661667 195.143646,251.138657 
M298.768280,227.832550 
	C299.534607,229.143692 300.678009,230.367004 301.007111,231.779984 
	C303.458954,242.306244 305.707214,252.879852 308.145508,263.409393 
	C308.439697,264.679901 309.487640,265.775848 310.186249,266.952698 
	C310.950195,265.878693 311.812042,264.858398 312.441803,263.710754 
	C312.826904,263.009033 312.856384,262.111908 313.044067,261.302155 
	C315.409760,251.096771 317.758179,240.887299 320.163910,230.691376 
	C320.440063,229.521057 321.035858,228.426193 321.596405,227.011292 
	C320.078217,227.079102 318.730164,227.139313 318.280365,227.159409 
	C316.350494,235.924423 314.546417,244.118073 312.742340,252.311707 
	C312.251648,252.306595 311.760986,252.301468 311.270325,252.296341 
	C309.454071,243.783859 307.637787,235.271362 305.670502,226.051010 
	C304.078918,226.305359 301.156769,226.772369 298.768280,227.832550 
M163.972092,249.495285 
	C163.972092,255.253983 163.972092,261.012665 163.972092,266.818726 
	C168.308533,266.818726 174.079529,266.818726 179.650787,266.818726 
	C179.650787,263.023346 179.650787,259.450806 179.650787,255.878250 
	C177.274170,259.995636 178.000809,266.439697 170.350143,265.258911 
	C170.350143,252.285385 170.350143,239.374710 170.350143,226.602020 
	C167.946991,226.602020 165.421371,226.602020 163.972092,226.602020 
	C163.972092,234.116318 163.972092,241.307022 163.972092,249.495285 
M226.314377,266.952423 
	C228.782959,266.952423 231.251541,266.952423 233.350891,266.952423 
	C233.350891,253.331589 233.350891,240.033920 233.350891,226.482330 
	C231.055725,226.482330 228.466507,226.482330 225.997711,226.482330 
	C226.360092,228.149399 226.954468,229.641800 226.966415,231.138840 
	C227.048859,241.459045 227.067566,251.780899 226.946030,262.100311 
	C226.928223,263.611572 226.056992,265.112762 226.314377,266.952423 
M74.883446,224.655594 
	C74.526039,224.911133 74.168633,225.166656 73.811226,225.422195 
	C74.156403,225.574600 74.501579,225.727005 74.846764,225.879410 
	C75.029198,225.455795 75.211632,225.032181 74.883446,224.655594 
M95.700539,211.589218 
	C95.992897,211.371994 96.285255,211.154770 96.577606,210.937546 
	C96.399948,210.751816 96.222282,210.566086 96.044624,210.380356 
	C95.813904,210.662537 95.583183,210.944717 95.700539,211.589218 
M71.924477,222.237366 
	C71.951057,222.601685 71.977638,222.965988 72.004211,223.330307 
	C72.259415,223.253021 72.514610,223.175720 72.769814,223.098434 
	C72.643745,222.831802 72.517685,222.565155 71.924477,222.237366 
M79.623947,214.476089 
	C79.838684,214.531250 80.053421,214.586411 80.268158,214.641571 
	C80.130081,214.505966 79.992012,214.370361 79.623947,214.476089 
M162.537064,211.680298 
	C162.483566,211.741150 162.430069,211.801987 162.537064,211.680298 
M114.819595,198.239151 
	C114.876686,198.411682 114.933777,198.584213 114.990868,198.756744 
	C115.046661,198.583084 115.102448,198.409439 114.819595,198.239151 
M123.680321,253.462891 
	C123.870354,253.500092 124.060379,253.537292 124.250404,253.574478 
	C124.121216,253.590790 123.992027,253.607086 123.680321,253.462891 
M146.506851,227.474030 
	C146.506851,227.474030 146.508575,227.513184 146.506851,227.474030 
M69.591339,222.516144 
	C69.591339,222.516144 69.476433,222.585815 69.591339,222.516144 
M103.520851,207.382507 
	C103.520851,207.382507 103.422180,207.558792 103.422180,207.558792 
	C103.422180,207.558792 103.615555,207.532669 103.520851,207.382507 
z"/>
<path fill="#14433D" opacity="1.000000" stroke="none" 
	d="
M137.006439,174.940735 
	C140.616699,172.305969 144.226944,169.671204 148.466034,166.913345 
	C149.391388,166.506546 149.687881,166.222824 149.984390,165.939102 
	C151.317947,164.751144 152.529984,163.376373 154.010010,162.413605 
	C157.222992,160.323563 158.754990,161.415771 160.742020,164.840622 
	C165.235977,172.586380 163.146713,179.647659 160.254013,186.985840 
	C159.512543,188.866791 159.315430,190.962296 158.552734,194.368057 
	C161.865540,191.447388 164.049164,189.522247 166.201828,187.624405 
	C172.560455,192.881042 171.114334,203.179276 163.015945,209.996841 
	C163.630569,206.712234 164.555679,203.721512 164.613876,200.714005 
	C164.647980,198.951859 163.718002,196.649506 162.411179,195.586884 
	C161.677109,194.989960 159.090302,196.108063 157.697006,197.008606 
	C155.197525,198.624115 152.914658,200.595108 150.642593,202.536163 
	C148.574799,204.302734 146.641525,206.226791 143.494339,207.626373 
	C145.310501,203.154022 146.947525,198.597672 148.994385,194.233536 
	C150.950119,190.063705 153.549820,186.193924 155.472961,182.011322 
	C157.963013,176.595749 161.652466,171.078522 155.820511,165.509216 
	C155.237305,168.867462 153.293137,170.542099 150.697296,168.627975 
	C146.529388,176.215683 142.366898,183.793533 137.783234,191.673798 
	C137.031509,191.979950 136.700974,191.985245 136.370453,191.992096 
	C137.772812,188.160980 139.291046,184.367035 140.536270,180.485504 
	C141.347946,177.955414 142.242065,175.052979 137.381592,174.978455 
	C136.979218,174.921829 137.006439,174.940735 137.006439,174.940735 
z"/>
<path fill="#1F7689" opacity="1.000000" stroke="none" 
	d="
M364.037476,261.523560 
	C364.002167,258.422638 364.166718,255.738434 363.908020,253.095673 
	C363.598083,249.929306 362.110535,247.741486 358.271301,248.238159 
	C358.271301,254.339615 358.271301,260.384979 358.271301,266.724121 
	C355.999573,266.724121 353.248291,266.724121 351.864166,266.724121 
	C351.958130,253.427490 352.007660,240.105286 351.813507,226.303726 
	C356.924988,226.932587 364.634796,223.723770 368.833313,231.211472 
	C371.929108,236.732620 370.367004,242.523941 365.426971,247.761124 
	C373.936005,251.749252 367.413757,261.038910 372.208801,266.566162 
	C367.370636,268.388031 365.584656,267.415192 364.037476,261.523560 
M359.150391,246.323898 
	C363.676483,244.855576 364.808685,242.102463 363.930664,234.014572 
	C363.575348,230.741486 362.767120,227.631332 358.283051,228.142090 
	C358.283051,234.157211 358.283051,240.078705 359.150391,246.323898 
z"/>
<path fill="#297C8E" opacity="1.000000" stroke="none" 
	d="
M266.885162,253.018555 
	C267.029327,257.905640 267.173523,262.304840 267.322479,266.848633 
	C266.555023,266.848633 264.441986,266.848633 262.187836,266.848633 
	C264.971558,262.940796 264.998230,230.177658 262.174957,226.707031 
	C265.593048,225.450211 267.593018,226.235321 269.155975,229.669235 
	C272.573853,237.178391 276.400177,244.501663 280.615784,251.785431 
	C280.789124,243.538818 282.575226,235.315201 280.023590,226.856049 
	C281.391937,226.856049 283.390991,226.856049 284.424225,226.856049 
	C284.274597,233.186783 284.059265,239.645111 283.986481,246.105026 
	C283.909821,252.910812 283.969299,259.718140 283.969299,266.418518 
	C280.256500,268.010498 278.612762,266.523834 277.295898,263.417084 
	C274.323456,256.404297 271.048126,249.519897 266.885193,242.630096 
	C266.885193,245.930298 266.885193,249.230499 266.885162,253.018555 
z"/>
<path fill="#21778A" opacity="1.000000" stroke="none" 
	d="
M240.043213,232.229706 
	C241.976608,227.944641 244.588547,225.310043 249.365814,225.832962 
	C254.156143,226.357315 256.047974,229.723145 257.164978,233.730835 
	C259.626648,242.563217 259.485748,251.430908 257.055634,260.248138 
	C255.839417,264.660919 253.159668,267.649719 248.289276,267.624390 
	C243.628647,267.600159 241.084167,264.635529 239.844788,260.482788 
	C237.072769,251.194717 236.994156,241.883682 240.043213,232.229706 
M252.388046,240.561371 
	C252.258255,238.066162 252.567734,235.437363 251.862091,233.117310 
	C251.279419,231.201553 249.496216,229.650909 248.244980,227.938477 
	C247.076523,229.518417 244.954178,231.064728 244.897110,232.683868 
	C244.569672,241.972733 244.539230,251.286285 244.896729,260.572662 
	C244.965591,262.361603 247.206985,264.066956 248.446182,265.810852 
	C249.649094,263.883514 251.710419,262.034332 251.894348,260.014221 
	C252.451645,253.893066 252.281769,247.705719 252.388046,240.561371 
z"/>
<path fill="#15443E" opacity="1.000000" stroke="none" 
	d="
M100.637070,221.216156 
	C100.843063,217.224960 101.049057,213.233780 101.255058,209.242584 
	C101.809944,209.249207 102.364830,209.255844 102.919716,209.262466 
	C102.919716,211.367813 102.703308,213.501907 102.977974,215.570801 
	C103.278305,217.833008 103.721031,220.184738 104.695427,222.212082 
	C105.379997,223.636429 107.058052,224.583282 108.292465,225.743362 
	C109.311302,224.181305 110.935387,222.721939 111.221573,221.035538 
	C111.797821,217.639908 111.544167,214.112289 111.829559,210.655350 
	C112.018494,208.366821 112.549377,206.106522 113.213242,203.337769 
	C113.663788,202.899933 113.828278,202.957886 113.992767,203.015839 
	C114.190193,205.636719 114.058609,208.342575 114.705612,210.847321 
	C115.108620,212.407440 116.438606,214.221359 117.834175,214.846878 
	C118.671432,215.222168 120.880402,213.847000 121.698853,212.704208 
	C123.983208,209.514664 125.864212,206.036209 128.310699,202.345062 
	C129.081619,202.018250 129.446274,202.018188 129.810944,202.018143 
	C127.976997,206.369370 126.341591,210.819244 124.244911,215.039948 
	C122.630966,218.288895 120.097069,221.092163 118.576340,224.373581 
	C115.943291,230.055145 115.658630,235.861389 118.940063,241.572708 
	C120.543243,244.363052 121.809479,247.346985 123.492493,250.782791 
	C114.501106,242.493896 104.871788,235.510437 101.113785,223.036270 
	C100.892952,222.041016 100.765007,221.628586 100.637070,221.216156 
z"/>
<path fill="#1F7689" opacity="1.000000" stroke="none" 
	d="
M345.384949,237.799423 
	C345.284912,245.009888 345.579437,251.860504 344.728699,258.565796 
	C343.961395,264.613495 340.334961,267.687225 335.757629,267.633606 
	C330.265656,267.569305 327.929626,263.861694 326.668518,259.217896 
	C324.442596,251.021057 324.338104,242.752914 326.548981,234.552429 
	C328.233978,228.302460 331.194122,225.704742 335.835266,225.792892 
	C341.504181,225.900589 343.268921,230.026321 344.721741,234.438156 
	C345.030914,235.377106 345.100739,236.394852 345.384949,237.799423 
M339.010895,262.105225 
	C339.035980,252.160629 339.200592,242.212326 338.934937,232.275513 
	C338.895325,230.793579 336.833191,229.365707 335.706726,227.912796 
	C334.477997,229.240768 332.223694,230.539230 332.184509,231.901428 
	C331.898376,241.846680 331.933685,251.808289 332.218842,261.754639 
	C332.258118,263.124969 334.233093,264.439789 335.311890,265.780304 
	C336.494049,264.822388 337.676208,263.864441 339.010895,262.105225 
z"/>
<path fill="#21778A" opacity="1.000000" stroke="none" 
	d="
M195.014175,250.754593 
	C193.747101,249.661667 192.609497,248.952805 190.826828,247.841980 
	C190.826828,254.163208 190.826828,259.428467 190.826828,266.491211 
	C193.935318,264.710602 197.053131,263.921967 198.268692,261.956757 
	C199.566437,259.858582 199.067978,256.649414 200.324249,253.904022 
	C200.324249,258.086731 200.324249,262.269440 200.324249,266.751465 
	C194.841217,266.751465 189.100861,266.751465 183.346207,266.751465 
	C185.403839,262.925171 185.416977,230.553558 182.826935,226.293900 
	C186.174698,226.293900 189.027466,226.293900 191.880249,226.293900 
	C194.682190,226.293900 197.484146,226.293900 200.538971,226.293900 
	C200.538971,229.973251 200.538971,233.241898 200.538971,236.510544 
	C198.826584,231.943359 197.942093,226.955566 190.899658,228.293427 
	C190.899658,234.109955 190.899658,239.990082 190.899658,245.870209 
	C191.327286,246.125610 191.754913,246.381027 192.182541,246.636444 
	C193.630035,244.697617 195.077545,242.758804 196.535950,240.805389 
	C196.535950,245.054810 196.535950,249.475342 196.535950,253.895874 
	C196.358002,253.950058 196.180038,254.004227 196.002090,254.058395 
	C195.715942,253.085159 195.429794,252.111908 195.014175,250.754593 
z"/>
<path fill="#277B8D" opacity="1.000000" stroke="none" 
	d="
M214.999268,227.751541 
	C213.463425,229.381775 210.651733,230.974869 210.602997,232.648392 
	C210.328461,242.078629 210.575485,251.535019 211.025574,260.964294 
	C211.098068,262.483368 213.084198,263.911102 214.185760,265.381042 
	C214.895523,263.771545 215.984741,262.216431 216.225082,260.539642 
	C216.575470,258.094879 216.582962,255.524185 216.231873,253.079666 
	C215.945068,251.082794 214.919495,249.192017 213.963455,246.537933 
	C215.346588,246.477539 217.664825,246.376328 220.422440,246.255920 
	C220.422440,253.289948 220.422440,259.973450 220.422440,266.627045 
	C218.058655,266.955200 215.833313,267.360565 213.589676,267.554138 
	C209.737289,267.886475 207.105957,265.893768 205.862488,262.491547 
	C202.091217,252.173157 201.877853,241.650665 205.193130,231.204910 
	C206.497238,227.095947 209.729660,225.187500 214.599731,226.420197 
	C214.991989,227.129913 214.995056,227.440735 214.999268,227.751541 
z"/>
<path fill="#21778A" opacity="1.000000" stroke="none" 
	d="
M400.003998,265.897003 
	C403.041077,266.403229 405.000336,265.203461 405.891907,262.234222 
	C406.129425,261.443207 406.369873,260.599365 406.834473,259.938293 
	C414.534943,248.980194 408.222473,239.160507 404.269226,229.196655 
	C403.961273,228.420532 402.520294,228.093964 401.605927,227.558456 
	C401.880096,227.200363 402.154297,226.842255 402.428497,226.484161 
	C405.321625,226.484161 408.214783,226.484161 410.399170,226.484161 
	C411.642517,230.834793 412.809082,234.916611 414.414734,240.534973 
	C416.858917,235.057541 418.718781,230.889526 420.578644,226.721512 
	C421.403809,226.882446 422.228973,227.043365 423.054138,227.204285 
	C411.416626,241.865738 419.245911,254.100433 425.845612,266.714447 
	C423.589752,266.714447 420.590210,266.714447 418.227386,266.714447 
	C416.445923,261.616821 414.744934,256.749420 412.558105,250.491852 
	C410.265289,256.744263 408.486115,261.595917 406.574341,266.809143 
	C405.476990,266.809143 403.174744,266.809143 400.436218,266.589691 
	C399.999969,266.370239 400.003998,265.897003 400.003998,265.897003 
z"/>
<path fill="#1F7689" opacity="1.000000" stroke="none" 
	d="
M399.712646,265.672760 
	C400.003998,265.897003 399.999969,266.370239 399.999329,266.606873 
	C397.013611,266.843475 394.028534,266.843475 391.503784,266.843475 
	C391.641144,257.163361 388.257568,248.093979 386.034210,238.652679 
	C383.983337,247.929489 381.932434,257.206299 379.795807,266.871094 
	C379.080841,266.871094 377.127441,266.871094 375.452820,266.871094 
	C376.337555,265.081268 377.538361,263.412598 378.017334,261.557526 
	C380.757843,250.944366 383.265015,240.270798 386.034576,229.665543 
	C386.368866,228.385437 387.806854,227.393570 388.733307,226.268097 
	C389.488586,227.389679 390.650269,228.417114 390.935364,229.647614 
	C393.371979,240.165497 395.630829,250.724426 397.997009,261.258911 
	C398.318451,262.689880 398.939148,264.053650 399.712646,265.672760 
z"/>
<path fill="#12423B" opacity="1.000000" stroke="none" 
	d="
M79.136101,230.038696 
	C78.484818,236.951935 80.909241,243.098984 83.986214,249.044022 
	C89.286896,259.285522 88.358986,269.383911 82.757683,279.374115 
	C82.993172,277.696899 83.193031,276.013794 83.470383,274.343536 
	C84.617439,267.435608 84.212234,260.738922 80.533615,254.579498 
	C78.141212,250.573730 75.680222,250.073013 71.915581,252.819382 
	C70.319885,253.983444 68.922279,255.454117 67.577919,256.917114 
	C66.382904,258.217560 65.385864,259.699951 64.301430,261.102020 
	C63.883476,260.891357 63.465527,260.680695 63.047573,260.470032 
	C67.896202,250.478027 72.744827,240.486023 78.101562,230.263245 
	C78.785149,230.034531 78.960625,230.036606 79.136101,230.038696 
z"/>
<path fill="#23798B" opacity="1.000000" stroke="none" 
	d="
M298.501465,227.535950 
	C301.156769,226.772369 304.078918,226.305359 305.670502,226.051010 
	C307.637787,235.271362 309.454071,243.783859 311.270325,252.296341 
	C311.760986,252.301468 312.251648,252.306595 312.742340,252.311707 
	C314.546417,244.118073 316.350494,235.924423 318.280365,227.159409 
	C318.730164,227.139313 320.078217,227.079102 321.596405,227.011292 
	C321.035858,228.426193 320.440063,229.521057 320.163910,230.691376 
	C317.758179,240.887299 315.409760,251.096771 313.044067,261.302155 
	C312.856384,262.111908 312.826904,263.009033 312.441803,263.710754 
	C311.812042,264.858398 310.950195,265.878693 310.186249,266.952698 
	C309.487640,265.775848 308.439697,264.679901 308.145508,263.409393 
	C305.707214,252.879852 303.458954,242.306244 301.007111,231.779984 
	C300.678009,230.367004 299.534607,229.143692 298.501465,227.535950 
z"/>
<path fill="#207689" opacity="1.000000" stroke="none" 
	d="
M163.972092,248.996490 
	C163.972092,241.307022 163.972092,234.116318 163.972092,226.602020 
	C165.421371,226.602020 167.946991,226.602020 170.350143,226.602020 
	C170.350143,239.374710 170.350143,252.285385 170.350143,265.258911 
	C178.000809,266.439697 177.274170,259.995636 179.650787,255.878250 
	C179.650787,259.450806 179.650787,263.023346 179.650787,266.818726 
	C174.079529,266.818726 168.308533,266.818726 163.972092,266.818726 
	C163.972092,261.012665 163.972092,255.253983 163.972092,248.996490 
z"/>
<path fill="#207689" opacity="1.000000" stroke="none" 
	d="
M225.947510,266.785522 
	C226.056992,265.112762 226.928223,263.611572 226.946030,262.100311 
	C227.067566,251.780899 227.048859,241.459045 226.966415,231.138840 
	C226.954468,229.641800 226.360092,228.149399 225.997711,226.482330 
	C228.466507,226.482330 231.055725,226.482330 233.350891,226.482330 
	C233.350891,240.033920 233.350891,253.331589 233.350891,266.952423 
	C231.251541,266.952423 228.782959,266.952423 225.947510,266.785522 
z"/>
<path fill="#184640" opacity="1.000000" stroke="none" 
	d="
M98.266121,195.938873 
	C96.906464,200.108536 95.546806,204.278214 94.033508,208.919052 
	C89.284767,203.988342 83.006714,204.397202 76.614281,206.302872 
	C69.261719,208.494781 68.202377,210.567291 68.950989,220.453613 
	C68.670776,220.515381 68.222122,220.724609 68.128670,220.619156 
	C59.710693,211.117233 60.495625,210.249588 71.771530,206.191238 
	C80.159470,203.172302 89.073570,201.650589 96.972946,195.921082 
	C97.830818,195.892975 98.048470,195.915924 98.266121,195.938873 
z"/>
<path fill="#184640" opacity="1.000000" stroke="none" 
	d="
M79.429749,229.758911 
	C78.960625,230.036606 78.785149,230.034531 78.346474,230.029587 
	C77.936455,229.072418 77.789650,228.118118 77.853355,228.532242 
	C81.081116,226.709915 85.511734,225.648514 86.206284,223.421783 
	C86.938477,221.074356 84.103516,217.614273 82.451630,213.765671 
	C84.633163,214.696213 86.924637,215.635956 89.184540,216.646301 
	C92.721046,218.227402 96.236191,219.856247 100.198730,221.340515 
	C100.765007,221.628586 100.892952,222.041016 101.026932,222.674164 
	C98.204742,224.131042 95.464401,225.664719 92.527290,226.532166 
	C88.334900,227.770370 83.998367,228.520523 79.429749,229.758911 
z"/>
<path fill="#184640" opacity="1.000000" stroke="none" 
	d="
M122.337517,186.351242 
	C115.261711,186.088593 114.152290,186.943680 111.740631,194.289139 
	C109.909554,192.270081 107.951874,190.111420 105.691666,187.619171 
	C110.153763,183.713898 116.318924,181.187775 123.524834,180.815475 
	C122.949982,182.676102 122.496689,184.143265 122.210571,186.012711 
	C122.377739,186.414978 122.337517,186.351242 122.337517,186.351242 
z"/>
<path fill="#28534D" opacity="1.000000" stroke="none" 
	d="
M134.005722,247.008987 
	C128.726639,238.110703 129.156860,230.084030 136.188354,225.150833 
	C135.422211,230.842102 134.384232,238.552658 133.671326,246.624832 
	C133.996399,246.986465 134.005722,247.008987 134.005722,247.008987 
z"/>
<path fill="#184640" opacity="1.000000" stroke="none" 
	d="
M160.081116,215.019531 
	C157.424789,220.544525 154.768448,226.069534 152.109680,231.599625 
	C151.964157,230.306671 152.185532,228.569687 151.498505,227.340378 
	C150.947968,226.355255 149.294556,225.986481 147.382660,224.931427 
	C151.696625,221.727142 155.724030,218.735718 159.895264,215.388428 
	C160.039108,215.032578 160.081116,215.019531 160.081116,215.019531 
z"/>
<path fill="#28534D" opacity="1.000000" stroke="none" 
	d="
M129.925964,201.566315 
	C129.446274,202.018188 129.081619,202.018250 128.443451,202.017883 
	C128.480850,198.154999 127.462265,195.402084 122.660683,195.854858 
	C125.254089,193.036682 127.673607,190.407501 130.041000,187.834946 
	C130.041000,192.071152 130.041000,196.592819 129.925964,201.566315 
z"/>
<path fill="#297C8E" opacity="1.000000" stroke="none" 
	d="
M215.320160,227.966965 
	C214.995056,227.440735 214.991989,227.129913 214.989349,226.585999 
	C216.666840,226.568359 218.345001,226.783844 220.100891,227.009293 
	C220.100891,230.242264 220.100891,234.046204 220.100891,237.850159 
	C219.798508,237.850449 219.496109,237.850754 219.193726,237.851044 
	C218.009491,234.628159 216.825272,231.405273 215.320160,227.966965 
z"/>
<path fill="#F8FAF9" opacity="1.000000" stroke="none" 
	d="
M122.206924,186.697571 
	C122.337517,186.351242 122.377739,186.414978 122.384415,186.375000 
	C123.258080,186.854202 124.125069,187.373398 124.992065,187.892578 
	C124.311592,188.630600 123.670540,189.410248 122.943153,190.098709 
	C120.873703,192.057388 118.769051,193.978882 116.339005,195.957489 
	C115.999771,195.999954 115.985802,195.988953 115.985802,195.988953 
	C116.467949,191.953247 118.862801,189.219864 122.206924,186.697571 
z"/>
<path fill="#184640" opacity="1.000000" stroke="none" 
	d="
M136.211655,192.289124 
	C136.700974,191.985245 137.031509,191.979950 137.609833,191.967728 
	C137.430450,193.498428 137.003281,195.037598 136.576096,196.576767 
	C136.401688,196.541840 136.227264,196.506897 136.052856,196.471954 
	C136.052856,195.176682 136.052856,193.881409 136.211655,192.289124 
z"/>
<path fill="#F8FAF9" opacity="1.000000" stroke="none" 
	d="
M98.589691,195.893829 
	C98.048470,195.915924 97.830818,195.892975 97.300766,195.769135 
	C97.774254,194.793640 98.560150,193.919006 99.672874,193.022034 
	C99.999702,192.999695 100.014099,193.013458 100.014099,193.013458 
	C99.647148,193.958572 99.280205,194.903687 98.589691,195.893829 
z"/>
<path fill="#F8FAF9" opacity="1.000000" stroke="none" 
	d="
M114.150925,202.776459 
	C113.828278,202.957886 113.663788,202.899933 113.252853,202.929718 
	C113.613396,202.135666 114.220367,201.253876 114.827347,200.372086 
	C115.120384,200.603088 115.413429,200.834091 115.706467,201.065094 
	C115.240669,201.555756 114.774879,202.046402 114.150925,202.776459 
z"/>
<path fill="#F8FAF9" opacity="1.000000" stroke="none" 
	d="
M99.992615,192.992447 
	C100.303391,192.191299 100.621239,191.397400 100.939087,190.603500 
	C101.269012,190.762802 101.598946,190.922104 101.928879,191.081406 
	C101.500046,191.698547 101.071220,192.315689 100.328247,192.973145 
	C100.014099,193.013458 99.999702,192.999695 99.992615,192.992447 
z"/>
<path fill="#F8FAF9" opacity="1.000000" stroke="none" 
	d="
M75.138763,224.632080 
	C75.211632,225.032181 75.029198,225.455795 74.846756,225.879410 
	C74.501579,225.727005 74.156403,225.574600 73.811226,225.422195 
	C74.168633,225.166656 74.526039,224.911133 75.138763,224.632080 
z"/>
<path fill="#14433D" opacity="1.000000" stroke="none" 
	d="
M136.980392,174.900482 
	C136.742508,175.202454 136.503448,175.525787 136.264374,175.849121 
	C136.398819,175.784637 136.541458,175.732758 136.665451,175.652176 
	C136.792603,175.569565 136.901520,175.458923 137.012421,175.150635 
	C137.006439,174.940735 136.979218,174.921829 136.980392,174.900482 
z"/>
<path fill="#F8FAF9" opacity="1.000000" stroke="none" 
	d="
M95.526505,211.408051 
	C95.583183,210.944717 95.813904,210.662537 96.044624,210.380356 
	C96.222282,210.566086 96.399948,210.751816 96.577606,210.937546 
	C96.285255,211.154770 95.992897,211.371994 95.526505,211.408051 
z"/>
<path fill="#F8FAF9" opacity="1.000000" stroke="none" 
	d="
M72.158051,222.267944 
	C72.517685,222.565155 72.643745,222.831802 72.769814,223.098434 
	C72.514610,223.175720 72.259415,223.253021 72.004211,223.330307 
	C71.977638,222.965988 71.951057,222.601685 72.158051,222.267944 
z"/>
<path fill="#F8FAF9" opacity="1.000000" stroke="none" 
	d="
M79.738945,214.355423 
	C79.992012,214.370361 80.130081,214.505966 80.268158,214.641571 
	C80.053421,214.586411 79.838684,214.531250 79.738945,214.355423 
z"/>
<path fill="#14433D" opacity="1.000000" stroke="none" 
	d="
M162.456818,211.771561 
	C162.430069,211.801987 162.483566,211.741150 162.456818,211.771561 
z"/>
<path fill="#F8FAF9" opacity="1.000000" stroke="none" 
	d="
M114.988922,198.237457 
	C115.102448,198.409439 115.046661,198.583084 114.990868,198.756744 
	C114.933777,198.584213 114.876686,198.411682 114.988922,198.237457 
z"/>
<path fill="#15443E" opacity="1.000000" stroke="none" 
	d="
M123.771584,253.543137 
	C123.992027,253.607086 124.121216,253.590790 124.250404,253.574478 
	C124.060379,253.537292 123.870354,253.500092 123.771584,253.543137 
z"/>
<path fill="#184640" opacity="1.000000" stroke="none" 
	d="
M146.507721,227.493607 
	C146.508575,227.513184 146.506851,227.474030 146.507721,227.493607 
z"/>
<path fill="#F8FAF9" opacity="1.000000" stroke="none" 
	d="
M69.533890,222.550980 
	C69.476433,222.585815 69.591339,222.516144 69.533890,222.550980 
z"/>
<path fill="#184640" opacity="1.000000" stroke="none" 
	d="
M160.032013,215.047394 
	C160.024933,215.062225 160.181488,214.928253 160.181488,214.928253 
	C160.181488,214.928253 159.964279,214.936722 160.022705,214.978119 
	C160.081116,215.019531 160.039108,215.032578 160.032013,215.047394 
z"/>
<path fill="#F8FAF9" opacity="1.000000" stroke="none" 
	d="
M103.568207,207.457581 
	C103.615555,207.532669 103.422180,207.558792 103.422180,207.558792 
	C103.422180,207.558792 103.520851,207.382507 103.568207,207.457581 
z"/>
<path fill="#28534D" opacity="1.000000" stroke="none" 
	d="
M134.009445,246.991760 
	C134.022491,246.997070 134.084961,247.184143 134.084961,247.184143 
	C134.084961,247.184143 134.137741,246.939240 134.071732,246.974121 
	C134.005722,247.008987 133.996399,246.986465 134.009445,246.991760 
z"/>
<path fill="#F8FAF9" opacity="1.000000" stroke="none" 
	d="
M116.005226,196.006775 
	C115.910088,196.043839 115.809502,196.074051 115.847359,196.046600 
	C115.985802,195.988953 115.999771,195.999954 116.005226,196.006775 
z"/>
<path fill="#184640" opacity="1.000000" stroke="none" 
	d="
M149.666245,165.963974 
	C149.687881,166.222824 149.391388,166.506546 148.779846,166.830673 
	C148.759247,166.576996 149.053665,166.282913 149.666245,165.963974 
z"/>
<path fill="#F8FAFB" opacity="1.000000" stroke="none" 
	d="
M358.716736,246.162048 
	C358.283051,240.078705 358.283051,234.157211 358.283051,228.142090 
	C362.767120,227.631332 363.575348,230.741486 363.930664,234.014572 
	C364.808685,242.102463 363.676483,244.855576 358.716736,246.162048 
z"/>
<path fill="#F8FAFB" opacity="1.000000" stroke="none" 
	d="
M252.391617,241.052765 
	C252.281769,247.705719 252.451645,253.893066 251.894348,260.014221 
	C251.710419,262.034332 249.649094,263.883514 248.446167,265.810852 
	C247.206985,264.066956 244.965591,262.361603 244.896729,260.572662 
	C244.539230,251.286285 244.569672,241.972733 244.897110,232.683868 
	C244.954178,231.064728 247.076523,229.518417 248.244995,227.938477 
	C249.496216,229.650909 251.279419,231.201553 251.862091,233.117310 
	C252.567734,235.437363 252.258255,238.066162 252.391617,241.052765 
z"/>
<path fill="#F0F6F7" opacity="1.000000" stroke="none" 
	d="
M338.934631,262.505859 
	C337.676208,263.864441 336.494049,264.822388 335.311890,265.780304 
	C334.233093,264.439789 332.258118,263.124969 332.218842,261.754639 
	C331.933685,251.808289 331.898376,241.846680 332.184509,231.901428 
	C332.223694,230.539230 334.477997,229.240768 335.706726,227.912811 
	C336.833191,229.365707 338.895325,230.793579 338.934937,232.275513 
	C339.200592,242.212326 339.035980,252.160629 338.934631,262.505859 
z"/>
</svg>