<?xml version="1.0" encoding="UTF-8"?>
<svg xmlns="http://www.w3.org/2000/svg" xmlns:xlink="http://www.w3.org/1999/xlink" width="1000px" height="1000px" viewBox="0 0 1000 1000" version="1.1">
<g id="surface1">
<path style=" stroke:none;fill-rule:nonzero;fill:rgb(0%,0%,0%);fill-opacity:1;" d="M 353.800781 208 C 350.800781 208.800781 342.601562 214 335.601562 219.199219 C 284.199219 258 272 265 248 269.199219 C 215.199219 275 201.199219 282.398438 174.199219 307.800781 C 155.398438 325.800781 132.398438 337.800781 104.398438 344.800781 C 78.800781 351.199219 56 362.601562 56 369 C 56 379.398438 78.800781 404.601562 98.199219 415.800781 L 107.601562 421 L 94.800781 444 C 87.800781 456.601562 79.601562 473.199219 76.800781 481 C 73.800781 488.601562 68.398438 502 64.800781 510.398438 C 57.398438 527.800781 51 547.800781 52.601562 549.398438 C 53.199219 550 54.800781 546.398438 56 541.800781 C 62.398438 518.199219 84.199219 494 99 494 C 105.800781 494 115.398438 506.601562 120 521.800781 C 123.800781 534 124.398438 539.398438 123.398438 554.800781 C 122.800781 564.800781 121 578 119.199219 584 C 113.601562 603.601562 113.800781 605.199219 120 592 C 132.398438 566 138 536.199219 134.199219 517.800781 C 132.800781 511.800781 126.800781 495.601562 120.800781 481.398438 C 113 463.199219 109.398438 452.199219 108.601562 443.199219 C 107 425 108.800781 422.800781 125.800781 421.601562 C 137.199219 420.800781 143.398438 418.800781 157.398438 411.800781 C 167.199219 407.199219 175.800781 403.199219 176.800781 403.199219 C 177.800781 403 179.398438 405.199219 180 408 C 184.800781 425.398438 204.601562 453.199219 222.800781 468 C 241.800781 483.398438 250.601562 496.398438 255.199219 516.601562 L 258 529 L 257.199219 517 C 256.398438 504.800781 252.601562 494.800781 236.601562 465 C 222.601562 438.800781 225.398438 418.800781 247.199219 386.601562 C 268.800781 354.800781 268.601562 355.398438 270.199219 320 C 271 303 272.199219 286.800781 272.800781 284 C 273.601562 281.199219 272.800781 282.398438 271 286.800781 C 266 299.800781 260 307.800781 252 312.601562 L 244.199219 317.199219 L 251.398438 317.199219 C 259.601562 317.199219 266 323.398438 266 331.398438 C 266 343.398438 241.398438 380 233.398438 380 C 229 380 222.398438 371 220.800781 363 C 219.398438 355.199219 224.800781 326.199219 229.398438 317.199219 C 233.199219 309.601562 242 300 245 300 C 246.199219 300 251 296.398438 255.800781 292 C 260.398438 287.601562 264 284 263.398438 284 C 259.199219 284 235.398438 297 233.199219 300.398438 C 230.398438 304.601562 220 331.398438 215.800781 345 C 214.601562 348.199219 213.199219 363.398438 212.398438 378.601562 C 211 402.601562 210.199219 406.601562 206.601562 410.199219 C 200.601562 416.199219 195.199219 413.601562 190 402.398438 C 182.800781 387.199219 182.398438 364.800781 189.398438 347 C 190.199219 344.601562 190 343.800781 188.398438 344.800781 C 183.800781 347.601562 178 368.398438 177.398438 383.601562 C 177 398.398438 176.800781 399 172 399.601562 C 165.398438 400.398438 156 396 140.398438 385 C 131 378.398438 125.800781 376 120.601562 376 L 113.199219 376 L 121.601562 383.199219 C 131.398438 391.398438 136.199219 403.800781 132 409 C 130.398438 410.800781 126.601562 413.601562 123.398438 415.398438 C 118.398438 418 116.199219 418 108.199219 415.800781 C 96 412.398438 75 392 73 381.601562 C 69.800781 364.199219 87.398438 350.800781 119.199219 346.800781 C 133.199219 345 142.601562 348.601562 154.800781 359.800781 C 160.800781 365.398438 164 367.398438 163 365 C 159.199219 355.800781 159.398438 338.800781 163.398438 329.800781 C 168.199219 319.199219 184.199219 301 192.398438 296.800781 C 197.800781 294 198.601562 294 202.199219 297.199219 C 204.398438 299.199219 207.199219 304.800781 208.800781 309.800781 L 211.398438 318.800781 L 213.800781 309 C 217.199219 295.398438 227 286 237.601562 286 C 244.398438 286 245.398438 285.398438 244.601562 282.398438 C 243.398438 277.398438 250.199219 271.800781 261.398438 268.800781 C 269.398438 266.800781 271.398438 266.800781 273.199219 269.199219 C 275 271.398438 276.601562 270.398438 281.800781 264 C 289 255 298.199219 249.398438 302.800781 251.199219 C 308 253.199219 306.601562 263.398438 298 285.199219 C 291.398438 302 290 308 290.199219 318.398438 L 290.398438 331 L 292.199219 321.199219 C 294.398438 307.199219 297.199219 301.199219 311.199219 280.800781 C 321.601562 265.601562 324.199219 259.800781 327 246.800781 C 329 238 331.601562 229.398438 333 227.398438 C 335.398438 224 335.601562 224 336.601562 228 C 338.601562 235.601562 351 231.800781 351 223.601562 C 351 217.800781 357 217.398438 357 223 C 357.199219 225.199219 358.601562 229.398438 360.601562 232 C 362.398438 234.601562 364 238.601562 364 240.601562 C 364 249 343.800781 295.601562 334.800781 307.601562 C 324.199219 322 318 338.199219 318 351.398438 L 318.199219 361 L 320.800781 354.800781 C 323.398438 348.800781 357.800781 319.800781 367.601562 315.398438 C 371.398438 313.601562 373 314 376.601562 317.800781 C 382.601562 323.800781 382.398438 342.398438 376 359 C 371.398438 371 367.601562 375.199219 333.601562 407 C 326 414 319 423 316.398438 428.398438 C 311 440.398438 310.601562 446 316 435 C 321.398438 423.800781 331.199219 413.601562 335.601562 414.398438 C 338.601562 415 339 418 338.601562 443 C 338.398438 469.601562 338.398438 470.199219 340.199219 455 C 342.601562 434.800781 348.601562 412.601562 355.199219 399.601562 C 358.199219 393.800781 367.601562 379.199219 376.199219 367 C 384.800781 354.800781 393.398438 341.199219 395.199219 336.800781 C 399.601562 326.398438 399.601562 305.601562 395.199219 299 C 389.398438 290.398438 386.398438 290.601562 375.800781 301.199219 C 360.398438 316.398438 359.601562 311 372 275 C 374.398438 268.398438 376.800781 257.398438 377.398438 250.398438 C 378.398438 239.601562 378 237 374.398438 232 C 372 229 369.601562 223.800781 368.800781 220.800781 C 367.398438 214.199219 362.601562 206 360.398438 206.199219 C 359.601562 206.199219 356.601562 207 353.800781 208 Z M 353.800781 208 "/>
<path style=" stroke:none;fill-rule:nonzero;fill:rgb(0%,0%,0%);fill-opacity:1;" d="M 308 386 C 306.800781 388.199219 306.398438 390 306.800781 390 C 307.398438 390 308.800781 388.199219 310 386 C 311.199219 383.800781 311.601562 382 311.199219 382 C 310.601562 382 309.199219 383.800781 308 386 Z M 308 386 "/>
<path style=" stroke:none;fill-rule:nonzero;fill:rgb(0%,0%,0%);fill-opacity:1;" d="M 297.601562 400.398438 C 293.800781 405.199219 289.199219 411.398438 287.398438 414.398438 C 285.398438 417.601562 282.398438 422.398438 280.601562 425.398438 L 277.199219 431 L 275.800781 426 C 273.398438 417.601562 273.800781 450 276.199219 463 C 278.398438 475.398438 285.800781 496.800781 287.199219 495.398438 C 287.800781 495 286.800781 489.398438 285 482.800781 C 278.601562 458 283.601562 426 297.398438 405.800781 C 305 394.601562 306.398438 392 305.398438 392 C 304.800781 392 301.398438 395.800781 297.601562 400.398438 Z M 297.601562 400.398438 "/>
<path style=" stroke:none;fill-rule:nonzero;fill:rgb(0%,0%,0%);fill-opacity:1;" d="M 478.398438 472.398438 C 477 473.800781 476 476.601562 476 479 C 476 487.800781 488 491.601562 492 484.199219 C 494.800781 478.800781 494.601562 476.800781 490.800781 473.199219 C 487.199219 469.398438 481.800781 469 478.398438 472.398438 Z M 478.398438 472.398438 "/>
<path style=" stroke:none;fill-rule:nonzero;fill:rgb(0%,0%,0%);fill-opacity:1;" d="M 298 512 L 298 552 L 344.199219 552 L 343.601562 544.398438 L 343 537 L 329.601562 536.398438 L 316 535.800781 L 316 472 L 298 472 Z M 298 512 "/>
<path style=" stroke:none;fill-rule:nonzero;fill:rgb(0%,0%,0%);fill-opacity:1;" d="M 530.398438 479.800781 C 525 489.398438 525 490 530.601562 490 C 534.800781 490 540.601562 485.199219 547.800781 475.398438 C 550.199219 472.398438 549.800781 472 542.601562 472 C 535.601562 472 534.199219 472.800781 530.398438 479.800781 Z M 530.398438 479.800781 "/>
<path style=" stroke:none;fill-rule:nonzero;fill:rgb(0%,0%,0%);fill-opacity:1;" d="M 648 473.601562 C 648 474.601562 654.199219 492.398438 661.601562 513.199219 L 675.398438 551 L 685.398438 551.601562 L 695.398438 552.199219 L 709.199219 513.800781 C 716.800781 492.601562 723.398438 474.601562 723.601562 473.601562 C 724 472.800781 719.800781 472 714.398438 472 L 704.398438 472 L 694.800781 500.398438 L 685.398438 529 L 666.601562 473 L 657.398438 472.398438 C 652.199219 472 648 472.601562 648 473.601562 Z M 648 473.601562 "/>
<path style=" stroke:none;fill-rule:nonzero;fill:rgb(0%,0%,0%);fill-opacity:1;" d="M 364.601562 498 C 355 500.199219 348 505.398438 344.800781 513 C 341.199219 522 341.199219 528.800781 345.398438 537.398438 C 350 547.199219 358.601562 552 371.601562 552 C 384.398438 552 392.800781 548 397 540 L 400.199219 534 L 392 534 C 387.199219 534 382.398438 535.398438 380.800781 537 C 376.601562 541.199219 367.398438 540.800781 363.398438 536.398438 C 356.800781 529.199219 359 528 380 528 L 400 528 L 400 522 C 400 505.398438 383 493.800781 364.601562 498 Z M 379.601562 512.398438 C 384 516.800781 382.199219 518 372 518 C 366.601562 518 362 517.199219 362 516.398438 C 362 513.199219 367 510 372 510 C 374.800781 510 378.199219 511 379.601562 512.398438 Z M 379.601562 512.398438 "/>
<path style=" stroke:none;fill-rule:nonzero;fill:rgb(0%,0%,0%);fill-opacity:1;" d="M 414.199219 503.199219 C 401.601562 513.601562 401.199219 533.601562 413 545.398438 C 418.601562 551 421 552 429.398438 552 C 435 552 441 550.601562 443.601562 548.800781 C 448 545.800781 448 546 448 553 C 448 567 433 575 423.800781 565.800781 C 420.199219 562.199219 419 562 412.800781 564 C 409 565.199219 406 567.398438 406 568.800781 C 406 571.601562 413 578.398438 419.398438 581.800781 C 426 585.199219 442.199219 584.398438 449.800781 580.398438 C 462.199219 573.800781 464 567.398438 464 530.601562 L 464 498 L 456.199219 498 C 451.800781 498 448 499 447.601562 500.199219 C 447 502 445.800781 502 442.601562 500.199219 C 434.601562 496 421 497.398438 414.199219 503.199219 Z M 443.398438 516.398438 C 446 518.800781 448 522.601562 448 524.800781 C 448 530.199219 440.199219 538 434.601562 538 C 428.601562 538 422 531.199219 422 525 C 422 518.800781 428.601562 512 434.398438 512 C 436.800781 512 440.800781 514 443.398438 516.398438 Z M 443.398438 516.398438 "/>
<path style=" stroke:none;fill-rule:nonzero;fill:rgb(0%,0%,0%);fill-opacity:1;" d="M 476 525 L 476 552 L 492 552 L 492 498 L 476 498 Z M 476 525 "/>
<path style=" stroke:none;fill-rule:nonzero;fill:rgb(0%,0%,0%);fill-opacity:1;" d="M 513 502 C 505.800781 506.800781 500 516.800781 500 524.601562 C 500 533.398438 505.601562 543.398438 513 548 C 521 553 537.601562 553.398438 546.199219 549 C 563.800781 539.800781 564.601562 512.398438 547.398438 502 C 538.601562 496.601562 521.199219 496.601562 513 502 Z M 539 516 C 543.800781 521.398438 543.398438 530 538 534.398438 C 529.199219 541.601562 518 536.398438 518 525 C 518 513.601562 531.398438 507.601562 539 516 Z M 539 516 "/>
<path style=" stroke:none;fill-rule:nonzero;fill:rgb(0%,0%,0%);fill-opacity:1;" d="M 568 525 L 568 552 L 584 552 L 584 535.199219 C 584 517.398438 586.398438 512 593.800781 512 C 600.398438 512 602 516.398438 602 534.398438 L 602 552 L 620 552 L 620 534 C 620 514.398438 617 503.800781 610.398438 500.199219 C 604.398438 497 593.601562 497.601562 588.398438 501.199219 C 584.398438 504 584 504 584 501.199219 C 584 498.800781 582 498 576 498 L 568 498 Z M 568 525 "/>
<path style=" stroke:none;fill-rule:nonzero;fill:rgb(0%,0%,0%);fill-opacity:1;" d="M 734.398438 502 C 727.398438 506.199219 722 516.398438 722 525 C 722 533.601562 727.398438 543.800781 734.398438 548 C 743.199219 553.199219 760.601562 553.398438 769.199219 548.199219 C 776 544 782 533.199219 782 525 C 782 516.800781 776 506 769.199219 501.800781 C 760.601562 496.601562 743.199219 496.800781 734.398438 502 Z M 759.601562 515.199219 C 768.800781 521.601562 763.199219 538 751.800781 538 C 746.199219 538 739.601562 531.199219 739.601562 525.398438 C 739.601562 514.199219 750.199219 508.601562 759.601562 515.199219 Z M 759.601562 515.199219 "/>
<path style=" stroke:none;fill-rule:nonzero;fill:rgb(0%,0%,0%);fill-opacity:1;" d="M 788 525 L 788 552 L 806 552 L 806 536 C 806 517.800781 809.398438 512 820 512 C 825.601562 512 826 511.398438 826 505 C 826 498.398438 825.601562 498 819.601562 498 C 816.199219 498 811.601562 499.398438 809.601562 501.398438 C 806.199219 504.398438 806 504.398438 806 501.398438 C 806 498.800781 804 498 797 498 L 788 498 Z M 788 525 "/>
<path style=" stroke:none;fill-rule:nonzero;fill:rgb(0%,0%,0%);fill-opacity:1;" d="M 836.800781 501.800781 C 830 506 824 516.800781 824 525 C 824 533.199219 830 544 836.800781 548.199219 C 844.800781 553.199219 858 553.199219 864.199219 548.199219 C 869 544.398438 869.199219 544.398438 873.800781 548.199219 C 877.398438 551.199219 881.601562 552 893 552 C 907.601562 552 907.800781 552 914 544.398438 L 920.199219 537 L 926.601562 544.601562 C 932.601562 551.800781 933.601562 552.199219 942.601562 551.601562 L 952.199219 551 L 941.199219 538.199219 L 930.398438 525.199219 L 941.199219 512.199219 L 952.199219 499 L 942.601562 498.398438 C 933.601562 497.800781 932.601562 498.199219 926.398438 505.398438 L 919.800781 513 L 913.800781 505.398438 C 908.199219 498.601562 906.800781 498 897.601562 498 L 887.398438 498 L 892.199219 503.800781 C 894.800781 507 899.800781 513.199219 903.398438 517.601562 L 909.800781 525.398438 L 900 536.199219 C 892 545.199219 890.199219 546.199219 890 542.800781 C 890 540.398438 888.601562 538 887 537.199219 C 884.601562 536.398438 884 532.199219 884 517 L 884 498 L 875 498 C 870 498 866 499 866 500 C 866 501.398438 864.800781 501.398438 862.199219 500 C 856 496.800781 843.601562 497.601562 836.800781 501.800781 Z M 863.800781 517.199219 C 866.199219 520.199219 868 523.800781 868 525.398438 C 868 529.601562 858.800781 538 854 538 C 843.398438 538 837.800781 521.199219 846.398438 515.199219 C 853 510.601562 859.199219 511.398438 863.800781 517.199219 Z M 863.800781 517.199219 "/>
</g>
</svg>
